[Header]
FileType HTR
DataType HTRS
FileVersion 1
NumSegments 64
NumFrames 3
DataFrameRate 24
EulerRotationOrder ZYX
CalibrationUnits mm
RotationUnits Degrees
GlobalAxisofGravity Y
BoneLengthAxis Y
ScaleFactor 1.0
[SegmentNames&Hierarchy]
Hips	GLOBAL
Spine	Hips
Spine1	Spine
Spine2	Spine1
Neck	Spine2
Head	Neck
LeftEye	Head
RightEye	Head
LeftShoulder	Spine2
LeftArm	LeftShoulder
LeftForeArm	LeftArm
LeftHand	LeftForeArm
LeftHandThumb1	LeftHand
LeftHandThumb2	LeftHandThumb1
LeftHandThumb3	LeftHandThumb2
LeftHandThumb4	LeftHandThumb3
LeftHandIndex1	LeftHand
LeftHandIndex2	LeftHandIndex1
LeftHandIndex3	LeftHandIndex2
LeftHandIndex4	LeftHandIndex3
LeftHandMiddle1	LeftHand
LeftHandMiddle2	LeftHandMiddle1
LeftHandMiddle3	LeftHandMiddle2
LeftHandMiddle4	LeftHandMiddle3
LeftHandRing1	LeftHand
LeftHandRing2	LeftHandRing1
LeftHandRing3	LeftHandRing2
LeftHandRing4	LeftHandRing3
LeftHandPinky1	LeftHand
LeftHandPinky2	LeftHandPinky1
LeftHandPinky3	LeftHandPinky2
LeftHandPinky4	LeftHandPinky3
RightShoulder	Spine2
RightArm	RightShoulder
RightForeArm	RightArm
RightHand	RightForeArm
RightHandPinky1	RightHand
RightHandPinky2	RightHandPinky1
RightHandPinky3	RightHandPinky2
RightHandPinky4	RightHandPinky3
RightHandRing1	RightHand
RightHandRing2	RightHandRing1
RightHandRing3	RightHandRing2
RightHandRing4	RightHandRing3
RightHandMiddle1	RightHand
RightHandMiddle2	RightHandMiddle1
RightHandMiddle3	RightHandMiddle2
RightHandMiddle4	RightHandMiddle3
RightHandIndex1	RightHand
RightHandIndex2	RightHandIndex1
RightHandIndex3	RightHandIndex2
RightHandIndex4	RightHandIndex3
RightHandThumb1	RightHand
RightHandThumb2	RightHandThumb1
RightHandThumb3	RightHandThumb2
RightHandThumb4	RightHandThumb3
LeftUpLeg	Hips
LeftLeg	LeftUpLeg
LeftFoot	LeftLeg
LeftToeBase	LeftFoot
RightUpLeg	Hips
RightLeg	RightUpLeg
RightFoot	RightLeg
RightToeBase	RightFoot
[BasePosition]
Hips	0	0	0	0	0	0	1
Spine	0	0	0	0	0	0	1
Spine1	0	0	0	0	0	0	1
Spine2	0	0	0	0	0	0	1
Neck	0	0	0	0	0	0	1
Head	0	0	0	0	0	0	1
LeftEye	0	0	0	0	0	0	1
RightEye	0	0	0	0	0	0	1
LeftShoulder	0	0	0	0	0	0	1
LeftArm	0	0	0	0	0	0	1
LeftForeArm	0	0	0	0	0	0	1
LeftHand	0	0	0	0	0	0	1
LeftHandThumb1	0	0	0	0	0	0	1
LeftHandThumb2	0	0	0	0	0	0	1
LeftHandThumb3	0	0	0	0	0	0	1
LeftHandThumb4	0	0	0	0	0	0	1
LeftHandIndex1	0	0	0	0	0	0	1
LeftHandIndex2	0	0	0	0	0	0	1
LeftHandIndex3	0	0	0	0	0	0	1
LeftHandIndex4	0	0	0	0	0	0	1
LeftHandMiddle1	0	0	0	0	0	0	1
LeftHandMiddle2	0	0	0	0	0	0	1
LeftHandMiddle3	0	0	0	0	0	0	1
LeftHandMiddle4	0	0	0	0	0	0	1
LeftHandRing1	0	0	0	0	0	0	1
LeftHandRing2	0	0	0	0	0	0	1
LeftHandRing3	0	0	0	0	0	0	1
LeftHandRing4	0	0	0	0	0	0	1
LeftHandPinky1	0	0	0	0	0	0	1
LeftHandPinky2	0	0	0	0	0	0	1
LeftHandPinky3	0	0	0	0	0	0	1
LeftHandPinky4	0	0	0	0	0	0	1
RightShoulder	0	0	0	0	0	0	1
RightArm	0	0	0	0	0	0	1
RightForeArm	0	0	0	0	0	0	1
RightHand	0	0	0	0	0	0	1
RightHandPinky1	0	0	0	0	0	0	1
RightHandPinky2	0	0	0	0	0	0	1
RightHandPinky3	0	0	0	0	0	0	1
RightHandPinky4	0	0	0	0	0	0	1
RightHandRing1	0	0	0	0	0	0	1
RightHandRing2	0	0	0	0	0	0	1
RightHandRing3	0	0	0	0	0	0	1
RightHandRing4	0	0	0	0	0	0	1
RightHandMiddle1	0	0	0	0	0	0	1
RightHandMiddle2	0	0	0	0	0	0	1
RightHandMiddle3	0	0	0	0	0	0	1
RightHandMiddle4	0	0	0	0	0	0	1
RightHandIndex1	0	0	0	0	0	0	1
RightHandIndex2	0	0	0	0	0	0	1
RightHandIndex3	0	0	0	0	0	0	1
RightHandIndex4	0	0	0	0	0	0	1
RightHandThumb1	0	0	0	0	0	0	1
RightHandThumb2	0	0	0	0	0	0	1
RightHandThumb3	0	0	0	0	0	0	1
RightHandThumb4	0	0	0	0	0	0	1
LeftUpLeg	0	0	0	0	0	0	1
LeftLeg	0	0	0	0	0	0	1
LeftFoot	0	0	0	0	0	0	1
LeftToeBase	0	0	0	0	0	0	1
RightUpLeg	0	0	0	0	0	0	1
RightLeg	0	0	0	0	0	0	1
RightFoot	0	0	0	0	0	0	1
RightToeBase	0	0	0	0	0	0	1
[Hips]
18	7.872351646	1015.203247	-124.1344528	-8.717556	55.83635712	-9.424813271	1.0
19	20.68380547	1016.046143	-128.3703613	-9.691430092	59.0155983	-10.22992992	1.0
20	31.40556335	1016.620544	-128.7477722	-10.88404369	62.18434143	-11.26118755	1.0
[Spine]
18	0	101.8159943	1.315000057	1.41891253	-0.9237101674	2.554183245	1.0
19	0	101.8159943	1.315000057	1.408046842	-1.924846768	2.800696373	1.0
20	0	101.8159943	1.315000057	1.356478691	-2.726855755	2.994862795	1.0
[Spine1]
18	0	100.8349991	-10.00800037	0.9097648263	-0.09983535856	4.518162727	1.0
19	0	100.8349991	-10.00800037	0.7921404839	-1.293877482	4.616098404	1.0
20	0	100.8349991	-10.00800037	0.6661115885	-2.176376343	4.878407478	1.0
[Spine2]
18	0	91	-13.73399925	0.8809611201	0.3887061179	4.439558983	1.0
19	0	91	-13.73399925	0.6772964001	-0.7945501804	4.556974888	1.0
20	0	91	-13.73399925	0.4911743104	-1.663240194	4.833919048	1.0
[Neck]
18	0	166.7169952	-25.16200066	1.791452169	6.501460075	-3.367406845	1.0
19	0	166.7169952	-25.16200066	2.37163806	7.028102875	-2.840129375	1.0
20	0	166.7169952	-25.16200066	2.830318928	7.302335739	-2.376507521	1.0
[Head]
18	0	96.17900085	16.84999847	-6.106757164	20.36618614	-18.89198875	1.0
19	0	96.17900085	16.84999847	-5.227067471	21.75060654	-18.24936104	1.0
20	0	96.17900085	16.84999847	-4.032935143	22.18270111	-16.96931267	1.0
[LeftEye]
18	30.6760006	64.09500122	92.83599854	0	0	0	1.0
19	30.6760006	64.09500122	92.83599854	0	0	0	1.0
20	30.6760006	64.09500122	92.83599854	0	0	0	1.0
[RightEye]
18	-30.6760006	64.09500122	92.83499908	0	0	0	1.0
19	-30.6760006	64.09500122	92.83499908	0	0	0	1.0
20	-30.6760006	64.09500122	92.83499908	0	0	0	1.0
[LeftShoulder]
18	45.70400238	109.4599991	-26.28000069	4.570637226	-11.39756489	-3.929283857	1.0
19	45.70400238	109.4599991	-26.28000069	4.563973427	-11.4436655	-3.909664154	1.0
20	45.70400238	109.4599991	-26.28000069	4.517590046	-12.3770895	-3.97223115	1.0
[LeftArm]
18	105.923996	-5.24600029	-22.32099915	-3.446236134	8.708964348	-90.92166901	1.0
19	105.923996	-5.24600029	-22.32099915	-1.836778998	8.503165245	-89.96942902	1.0
20	105.923996	-5.24600029	-22.32099915	-1.251504183	7.654122353	-88.35546875	1.0
[LeftForeArm]
18	278.414978	-0.0009999999311	0	9.534081983e-06	-4.309705257	-0.0002094179217	1.0
19	278.414978	-0.0009999999311	0	1.681252456e-06	-3.684952497	-0.0002037139348	1.0
20	278.414978	-0.0009999999311	0	2.183225433e-06	-3.342106104	-0.0002173217654	1.0
[LeftHand]
18	283.2879944	0	0	-21.03623581	1.689957023	-19.14351273	1.0
19	283.2879944	0	0	-21.71119118	2.189193249	-18.42463684	1.0
20	283.2879944	0	0	-23.11481857	2.760270596	-16.39786911	1.0
[LeftHandThumb1]
18	24.6609993	-15.75	26.8239994	19.84885025	0.1727995127	10.26590538	1.0
19	24.6609993	-15.75	26.8239994	20.28189468	-0.08106895536	9.955544472	1.0
20	24.6609993	-15.75	26.8239994	20.10845375	-0.4157609046	9.942886353	1.0
[LeftHandThumb2]
18	32.29800034	-18.64699936	18.64699936	-0.3424264193	29.95651245	-3.003481627	1.0
19	32.29800034	-18.64699936	18.64699936	-0.3409808576	30.14619255	-2.943029881	1.0
20	32.29800034	-18.64699936	18.64699936	-0.384007901	30.67996597	-3.039549828	1.0
[LeftHandThumb3]
18	26.52600098	-15.31499958	15.31499958	2.060663462	8.416945457	0.2442841679	1.0
19	26.52600098	-15.31499958	15.31499958	2.070430756	8.518710136	-0.2235853076	1.0
20	26.52600098	-15.31499958	15.31499958	2.075716257	8.634420395	-0.3988791406	1.0
[LeftHandThumb4]
18	19.54599953	-11.28499985	11.28499985	0	0	0	1.0
19	19.54599953	-11.28499985	11.28499985	0	0	0	1.0
20	19.54599953	-11.28499985	11.28499985	0	0	0	1.0
[LeftHandIndex1]
18	91.09299469	-5.170999527	22.60099792	0.3648701906	4.267122746	-2.168842793	1.0
19	91.09299469	-5.170999527	22.60099792	0.282972753	4.424933434	-3.241334915	1.0
20	91.09299469	-5.170999527	22.60099792	0.2080456764	4.546254158	-4.140671253	1.0
[LeftHandIndex2]
18	36.76399994	0	0	-0.6356470585	2.784115314	-20.72596931	1.0
19	36.76399994	0	0	-0.6337870955	2.780681133	-20.68752098	1.0
20	36.76399994	0	0	-0.6323056817	2.777935505	-20.6570034	1.0
[LeftHandIndex3]
18	28.83100128	0	0	-0.1124729887	0.820636332	-10.32325363	1.0
19	28.83100128	0	0	-0.1117855385	0.8168476224	-10.28486443	1.0
20	28.83100128	0	0	-0.1112288982	0.8138464689	-10.25440788	1.0
[LeftHandIndex4]
18	23.92700005	0	0	0	0	0	1.0
19	23.92700005	0	0	0	0	0	1.0
20	23.92700005	0	0	0	0	0	1.0
[LeftHandMiddle1]
18	95.33399963	0	0	-1.099950075	9.103399277	-12.2545166	1.0
19	95.33399963	0	0	-1.186786294	9.091773987	-13.00756359	1.0
20	95.33399963	0	0	-1.255616188	9.046092987	-13.60223579	1.0
[LeftHandMiddle2]
18	36.98199844	0	0	-1.410795569	3.805880547	-33.18244171	1.0
19	36.98199844	0	0	-1.411587715	3.806735754	-33.19405365	1.0
20	36.98199844	0	0	-1.41349113	3.808853149	-33.2220459	1.0
[LeftHandMiddle3]
18	29.50900078	0	0	-0.1439670622	1.464220166	-12.04348564	1.0
19	29.50900078	0	0	-0.1441987008	1.465194106	-12.0536375	1.0
20	29.50900078	0	0	-0.1448018253	1.467705607	-12.07964993	1.0
[LeftHandMiddle4]
18	28.3390007	0	0	0	0	0	1.0
19	28.3390007	0	0	0	0	0	1.0
20	28.3390007	0	0	0	0	0	1.0
[LeftHandRing1]
18	91.04499817	-0.4390000105	-18.65100098	-2.624085188	11.71267414	-23.79258156	1.0
19	91.04499817	-0.4390000105	-18.65100098	-2.698104143	11.61162949	-24.41197777	1.0
20	91.04499817	-0.4390000105	-18.65100098	-2.760879993	11.53319836	-24.93221474	1.0
[LeftHandRing2]
18	31.54000092	0	0	-1.184758782	4.039198399	-39.99221039	1.0
19	31.54000092	0	0	-1.184513927	4.038878441	-39.9881897	1.0
20	31.54000092	0	0	-1.184574485	4.03898859	-39.9894371	1.0
[LeftHandRing3]
18	29.37700081	0	0	-0.08749065548	1.883776069	-19.13528824	1.0
19	29.37700081	0	0	-0.08734789491	1.883179426	-19.1290226	1.0
20	29.37700081	0	0	-0.08734771609	1.883104682	-19.12847328	1.0
[LeftHandRing4]
18	26.47500038	0	0	0	0	0	1.0
19	26.47500038	0	0	0	0	0	1.0
20	26.47500038	0	0	0	0	0	1.0
[LeftHandPinky1]
18	80.77799988	-4.887000084	-38.06099701	-4.887208939	16.43044472	-34.10206604	1.0
19	80.77799988	-4.887000084	-38.06099701	-4.966192722	16.48910904	-34.62318039	1.0
20	80.77799988	-4.887000084	-38.06099701	-5.026309013	16.48844147	-35.06664658	1.0
[LeftHandPinky2]
18	36	0	0	-1.963424802	3.833010912	-45.90006638	1.0
19	36	0	0	-1.958269835	3.828549623	-45.83171463	1.0
20	36	0	0	-1.954898834	3.825614214	-45.78686142	1.0
[LeftHandPinky3]
18	21.14200211	0	0	-0.5535522103	2.855107784	-20.76353836	1.0
19	21.14200211	0	0	-0.5506173968	2.848950863	-20.69538879	1.0
20	21.14200211	0	0	-0.5486651063	2.844908953	-20.65064049	1.0
[LeftHandPinky4]
18	19.75699997	0	0	0	0	0	1.0
19	19.75699997	0	0	0	0	0	1.0
20	19.75699997	0	0	0	0	0	1.0
[RightShoulder]
18	-45.70000076	109.4620056	-26.28000069	4.760359764	3.547487736	5.009613991	1.0
19	-45.70000076	109.4620056	-26.28000069	4.80216217	2.627310038	5.679158688	1.0
20	-45.70000076	109.4620056	-26.28000069	4.852003098	1.741021633	6.511609554	1.0
[RightArm]
18	-105.9280014	-5.248000145	-22.32099915	-1.767204642	0.1910475641	64.34731293	1.0
19	-105.9280014	-5.248000145	-22.32099915	-1.51325953	0.8629274368	63.78878403	1.0
20	-105.9280014	-5.248000145	-22.32099915	-1.181409121	1.521066546	63.70888138	1.0
[RightForeArm]
18	-278.414978	0	0	2.910800276e-06	20.25954437	-7.688075812e-07	1.0
19	-278.414978	0	0	-1.221178877e-06	20.6931076	9.297251381e-06	1.0
20	-278.414978	0	0	9.657307601e-06	20.51195335	-1.619165414e-05	1.0
[RightHand]
18	-283.2879944	0	0.0009999999311	-13.38135624	0.2398971319	2.996008873	1.0
19	-283.2879944	0	0.0009999999311	-13.68355751	-0.08865029365	3.771121264	1.0
20	-283.2879944	0	0.0009999999311	-14.08347607	-1.270210862	5.703501701	1.0
[RightHandPinky1]
18	-80.76699829	-4.885000229	-38.06000137	-5.276743889	-15.65292835	37.56557465	1.0
19	-80.76699829	-4.885000229	-38.06000137	-5.272953033	-15.83614159	37.43777084	1.0
20	-80.76699829	-4.885000229	-38.06000137	-5.218199253	-16.10167503	36.89580536	1.0
[RightHandPinky2]
18	-36	0	0.0009999999311	-1.93041265	-3.803703308	45.47893143	1.0
19	-36	0	0.0009999999311	-1.935565114	-3.808238745	45.5476799	1.0
20	-36	0	0.0009999999311	-1.940277219	-3.81237936	45.61074448	1.0
[RightHandPinky3]
18	-21.14200211	0	0	-0.7571074963	0.07115955651	21.94070625	1.0
19	-21.14200211	0	0	-0.7602124214	0.06503619999	22.00912094	1.0
20	-21.14200211	0	0	-0.7630577683	0.05944560841	22.07184029	1.0
[RightHandPinky4]
18	-19.75699997	0	0	0	0	0	1.0
19	-19.75699997	0	0	0	0	0	1.0
20	-19.75699997	0	0	0	0	0	1.0
[RightHandRing1]
18	-91.03599548	-0.4390000105	-18.65100098	-3.102916479	-11.41889763	27.6182251	1.0
19	-91.03599548	-0.4390000105	-18.65100098	-3.082631111	-11.46914864	27.44421768	1.0
20	-91.03599548	-0.4390000105	-18.65100098	-3.004666567	-11.55775166	26.81253052	1.0
[RightHandRing2]
18	-31.54000092	0	0	-1.192762733	-4.049206734	40.12730026	1.0
19	-31.54000092	0	0	-1.194520354	-4.051454067	40.15612793	1.0
20	-31.54000092	0	0	-1.193658352	-4.050354481	40.14203262	1.0
[RightHandRing3]
18	-29.37700081	0	0	-0.1366522312	0.09777276218	17.73603821	1.0
19	-29.37700081	0	0	-0.1372944564	0.09478996694	17.76663589	1.0
20	-29.37700081	0	0	-0.1370827854	0.09578490257	17.75638771	1.0
[RightHandRing4]
18	-26.47500038	0	0	0	0	0	1.0
19	-26.47500038	0	0	0	0	0	1.0
20	-26.47500038	0	0	0	0	0	1.0
[RightHandMiddle1]
18	-95.32500458	0	0	-1.601251364	-8.754869461	16.53718185	1.0
19	-95.32500458	0	0	-1.575375676	-8.768364906	16.32108307	1.0
20	-95.32500458	0	0	-1.500907421	-8.700329781	15.70551014	1.0
[RightHandMiddle2]
18	-36.98199844	0	0	-1.432852149	-3.829543352	33.50668716	1.0
19	-36.98199844	0	0	-1.430570364	-3.827094793	33.47354507	1.0
20	-36.98199844	0	0	-1.421971798	-3.817764282	33.34789276	1.0
[RightHandMiddle3]
18	-29.50900078	0	0	-0.2560675144	-1.686746001	15.9887104	1.0
19	-29.50900078	0	0	-0.2551189065	-1.683689594	15.95651054	1.0
20	-29.50900078	0	0	-0.2514631152	-1.67170167	15.83067703	1.0
[RightHandMiddle4]
18	-28.3390007	0	0.0009999999311	0	0	0	1.0
19	-28.3390007	0	0.0009999999311	0	0	0	1.0
20	-28.3390007	0	0.0009999999311	0	0	0	1.0
[RightHandIndex1]
18	-91.08300018	-5.167999744	22.60099792	-0.3865762651	-4.70422554	8.56716156	1.0
19	-91.08300018	-5.167999744	22.60099792	-0.3538314998	-4.701040268	8.30552578	1.0
20	-91.08300018	-5.167999744	22.60099792	-0.2758229077	-4.623457432	7.57008791	1.0
[RightHandIndex2]
18	-36.76399994	0	0	-0.6273838878	-2.768672705	20.55656624	1.0
19	-36.76399994	0	0	-0.6284974813	-2.770768642	20.57964516	1.0
20	-36.76399994	0	0	-0.6263605356	-2.766771555	20.53512192	1.0
[RightHandIndex3]
18	-28.83100128	0	0	-0.2381093204	-0.1558589786	13.8281126	1.0
19	-28.83100128	0	0	-0.2386557609	-0.1580920815	13.85119247	1.0
20	-28.83100128	0	0	-0.2375968844	-0.1537785232	13.80675507	1.0
[RightHandIndex4]
18	-23.92700005	0	0	0	0	0	1.0
19	-23.92700005	0	0	0	0	0	1.0
20	-23.92700005	0	0	0	0	0	1.0
[RightHandThumb1]
18	-24.64799881	-15.72700024	26.82600021	17.60438919	5.292087078	-9.67964077	1.0
19	-24.64799881	-15.72700024	26.82600021	17.81394958	5.071139812	-9.643295288	1.0
20	-24.64799881	-15.72700024	26.82600021	18.31017113	4.467521191	-9.627901077	1.0
[RightHandThumb2]
18	-32.29800034	-18.64699936	18.64699936	-1.258375525	-33.38257217	3.287746668	1.0
19	-32.29800034	-18.64699936	18.64699936	-1.184135556	-33.21523285	3.172268629	1.0
20	-32.29800034	-18.64699936	18.64699936	-1.02547574	-32.68207169	2.884421587	1.0
[RightHandThumb3]
18	-26.52600098	-15.31399918	15.31399918	1.863310337	-8.454288483	0.8271712661	1.0
19	-26.52600098	-15.31399918	15.31399918	1.860255718	-8.444167137	0.824445188	1.0
20	-26.52600098	-15.31399918	15.31399918	1.857210875	-8.434065819	0.8217430115	1.0
[RightHandThumb4]
18	-19.54599953	-11.28499985	11.28499985	0	0	0	1.0
19	-19.54599953	-11.28499985	11.28499985	0	0	0	1.0
20	-19.54599953	-11.28499985	11.28499985	0	0	0	1.0
[LeftUpLeg]
18	82.07800293	-67.51699829	-15.99599934	-17.21374512	42.74208832	4.454166889	1.0
19	82.07800293	-67.51699829	-15.99599934	-16.53050232	42.14829254	4.259939194	1.0
20	82.07800293	-67.51699829	-15.99599934	-15.87248802	39.17130661	4.268191814	1.0
[LeftLeg]
18	0	-443.7049866	2.845999956	28.29139328	1.682014346	4.728932858	1.0
19	0	-443.7049866	2.845999956	27.97727394	0.2797735333	3.389920712	1.0
20	0	-443.7049866	2.845999956	27.74652481	-1.3175807	2.297969103	1.0
[LeftFoot]
18	0	-444.2789917	-29.8219986	-11.34810734	16.36460876	-6.058017254	1.0
19	0	-444.2789917	-29.8219986	-11.89205074	15.96595383	-5.192111015	1.0
20	0	-444.2789917	-29.8219986	-12.40367603	17.63516808	-5.102162838	1.0
[LeftToeBase]
18	0	-87.28699493	107.1060028	-0.3464866579	-2.437448347e-05	2.32683476e-07	1.0
19	0	-87.28699493	107.1060028	-0.4328441024	-5.743622296e-06	1.389812951e-06	1.0
20	0	-87.28699493	107.1060028	-0.4328407347	-1.079555932e-05	-1.298887241e-06	1.0
[RightUpLeg]
18	-82.07800293	-67.51699829	-15.99599934	-13.08830547	-11.30258083	5.389992237	1.0
19	-82.07800293	-67.51699829	-15.99599934	-12.23671627	-11.45332241	3.086688757	1.0
20	-82.07800293	-67.51699829	-15.99599934	-11.76665878	-9.747156143	2.862319708	1.0
[RightLeg]
18	0	-443.7049866	2.861999989	19.52885246	-11.23974323	2.267132282	1.0
19	0	-443.7049866	2.861999989	20.43956947	-11.9922266	3.960253716	1.0
20	0	-443.7049866	2.861999989	21.7637825	-11.59782696	2.428825617	1.0
[RightFoot]
18	0	-444.2770081	-29.83799934	-6.41298914	-30.57435608	-2.442634106	1.0
19	0	-444.2770081	-29.83799934	-6.827779293	-29.67434502	-1.650508046	1.0
20	0	-444.2770081	-29.83799934	-7.664211273	-26.53760147	0.520747304	1.0
[RightToeBase]
18	0	-87.28699493	107.1060028	-2.516082764	-6.324100468e-06	1.148087335e-06	1.0
19	0	-87.28699493	107.1060028	-4.99276495	-2.307630893e-06	-1.145439569e-06	1.0
20	0	-87.28699493	107.1060028	-7.139439583	-1.030859312e-05	8.335128996e-07	1.0
[EndOfFile]
